<svg version="1.1" xmlns="http://www.w3.org/2000/svg" xmlns:xlink="http://www.w3.org/1999/xlink" width="884" height="897"><defs><clipPath id="qpDKSzJaAECZ"><path fill="none" stroke="none" d=" M 0 0 L 884 0 L 884 897 L 0 897 L 0 0 Z"/></clipPath></defs><g transform="scale(1,1)" clip-path="url(#qpDKSzJaAECZ)"><g><rect fill="rgb(255,255,255)" stroke="none" x="0" y="0" width="884" height="897" fill-opacity="1"/><path fill="rgb(21,101,192)" stroke="none" paint-order="stroke fill markers" d=" M 389.8662275362289 482.2314399234721 C 389.8662275362289 491.6242227673698 382.2518725825043 499.23857772109443 372.8590897386066 499.23857772109443 C 363.46630689470896 499.23857772109443 355.85195194098435 491.6242227673698 355.85195194098435 482.2314399234721 C 355.85195194098435 472.8386570795745 363.46630689470896 465.2243021258499 372.8590897386066 465.2243021258499 C 382.2518725825043 465.2243021258499 389.8662275362289 472.8386570795745 389.8662275362289 482.2314399234721 Z" fill-opacity="0.2980392156862745"/><path fill="none" stroke="rgb(21,101,192)" paint-order="fill stroke markers" d=" M 389.8662275362289 482.2314399234721 C 389.8662275362289 491.6242227673698 382.2518725825043 499.23857772109443 372.8590897386066 499.23857772109443 C 363.46630689470896 499.23857772109443 355.85195194098435 491.6242227673698 355.85195194098435 482.2314399234721 C 355.85195194098435 472.8386570795745 363.46630689470896 465.2243021258499 372.8590897386066 465.2243021258499 C 382.2518725825043 465.2243021258499 389.8662275362289 472.8386570795745 389.8662275362289 482.2314399234721 Z" stroke-opacity="0.8" stroke-linecap="round" stroke-linejoin="round" stroke-miterlimit="10" stroke-width="2.5"/><path fill="rgb(97,97,97)" stroke="none" paint-order="stroke fill markers" d=" M 422.7214947961896 473.42789759405696 C 422.7214947961896 482.82068043795465 415.10713984246496 490.43503539167926 405.71435699856727 490.43503539167926 C 396.32157415466963 490.43503539167926 388.707219200945 482.82068043795465 388.707219200945 473.42789759405696 C 388.707219200945 464.0351147501593 396.32157415466963 456.4207597964347 405.71435699856727 456.4207597964347 C 415.10713984246496 456.4207597964347 422.7214947961896 464.0351147501593 422.7214947961896 473.42789759405696 Z" fill-opacity="0.2"/><path fill="none" stroke="rgb(97,97,97)" paint-order="fill stroke markers" d=" M 422.7214947961896 473.42789759405696 C 422.7214947961896 482.82068043795465 415.10713984246496 490.43503539167926 405.71435699856727 490.43503539167926 C 396.32157415466963 490.43503539167926 388.707219200945 482.82068043795465 388.707219200945 473.42789759405696 C 388.707219200945 464.0351147501593 396.32157415466963 456.4207597964347 405.71435699856727 456.4207597964347 C 415.10713984246496 456.4207597964347 422.7214947961896 464.0351147501593 422.7214947961896 473.42789759405696 Z" stroke-opacity="0.8" stroke-linecap="round" stroke-linejoin="round" stroke-miterlimit="10" stroke-width="2.5"/><path fill="rgb(97,97,97)" stroke="none" paint-order="stroke fill markers" d=" M 381.0626852068137 449.3761726635114 C 381.0626852068137 458.7689555074091 373.44833025308907 466.3833104611337 364.0555474091914 466.3833104611337 C 354.66276456529374 466.3833104611337 347.0484096115691 458.7689555074091 347.0484096115691 449.3761726635114 C 347.0484096115691 439.98338981961376 354.66276456529374 432.36903486588915 364.0555474091914 432.36903486588915 C 373.44833025308907 432.36903486588915 381.0626852068137 439.98338981961376 381.0626852068137 449.3761726635114 Z" fill-opacity="0.2"/><path fill="none" stroke="rgb(97,97,97)" paint-order="fill stroke markers" d=" M 381.0626852068137 449.3761726635114 C 381.0626852068137 458.7689555074091 373.44833025308907 466.3833104611337 364.0555474091914 466.3833104611337 C 354.66276456529374 466.3833104611337 347.0484096115691 458.7689555074091 347.0484096115691 449.3761726635114 C 347.0484096115691 439.98338981961376 354.66276456529374 432.36903486588915 364.0555474091914 432.36903486588915 C 373.44833025308907 432.36903486588915 381.0626852068137 439.98338981961376 381.0626852068137 449.3761726635114 Z" stroke-opacity="0.8" stroke-linecap="round" stroke-linejoin="round" stroke-miterlimit="10" stroke-width="2.5"/><path fill="rgb(21,101,192)" stroke="none" paint-order="stroke fill markers" d=" M 413.91795246677447 440.57263033409623 C 413.91795246677447 449.9654131779939 406.30359751304985 457.57976813171854 396.91081466915216 457.57976813171854 C 387.5180318252545 457.57976813171854 379.9036768715299 449.9654131779939 379.9036768715299 440.57263033409623 C 379.9036768715299 431.1798474901986 387.5180318252545 423.565492536474 396.91081466915216 423.565492536474 C 406.30359751304985 423.565492536474 413.91795246677447 431.1798474901986 413.91795246677447 440.57263033409623 Z" fill-opacity="0.2980392156862745"/><path fill="none" stroke="rgb(21,101,192)" paint-order="fill stroke markers" d=" M 413.91795246677447 440.57263033409623 C 413.91795246677447 449.9654131779939 406.30359751304985 457.57976813171854 396.91081466915216 457.57976813171854 C 387.5180318252545 457.57976813171854 379.9036768715299 449.9654131779939 379.9036768715299 440.57263033409623 C 379.9036768715299 431.1798474901986 387.5180318252545 423.565492536474 396.91081466915216 423.565492536474 C 406.30359751304985 423.565492536474 413.91795246677447 431.1798474901986 413.91795246677447 440.57263033409623 Z" stroke-opacity="0.8" stroke-linecap="round" stroke-linejoin="round" stroke-miterlimit="10" stroke-width="2.5"/><path fill="none" stroke="rgb(21,101,192)" paint-order="fill stroke markers" d=" M 425.94381493204713 461.4020351287842 C 425.94381493204713 484.0782188589472 407.5611359340424 502.46089785695193 384.8849522038794 502.46089785695193 C 362.2087684737163 502.46089785695193 343.82608947571157 484.0782188589472 343.82608947571157 461.4020351287842 C 343.82608947571157 438.7258513986211 362.2087684737163 420.34317240061637 384.8849522038794 420.34317240061637 C 407.5611359340424 420.34317240061637 425.94381493204713 438.7258513986211 425.94381493204713 461.4020351287842 Z" stroke-opacity="0.8" stroke-linecap="round" stroke-linejoin="round" stroke-miterlimit="10" stroke-width="2.5"/><path fill="none" stroke="rgb(199,80,0)" paint-order="fill stroke markers" d=" M 588.9706057753467 461.4020351287842 C 588.9706057753467 574.1154292555559 497.59834633065117 665.4876887002515 384.8849522038794 665.4876887002515 C 272.1715580771076 665.4876887002515 180.79929863241205 574.1154292555559 180.79929863241205 461.4020351287842 C 180.79929863241205 348.68864100201245 272.1715580771076 257.3163815573169 384.8849522038794 257.3163815573169 C 497.59834633065117 257.3163815573169 588.9706057753467 348.68864100201245 588.9706057753467 461.4020351287842 Z" stroke-opacity="0.8" stroke-linecap="round" stroke-linejoin="round" stroke-miterlimit="10" stroke-width="2.5"/><path fill="none" stroke="rgb(0,0,0)" paint-order="fill stroke markers" d=" M 160.99999999999997 306 L 216.40511551363898 346.2260887574915" stroke-opacity="0.6980392156862745" stroke-linecap="round" stroke-linejoin="round" stroke-miterlimit="10"/><path fill="none" stroke="rgb(0,0,0)" paint-order="fill stroke markers" d=" M 172 534 L 349.16148306920104 481.64219228020494" stroke-opacity="0.6980392156862745" stroke-linecap="round" stroke-linejoin="round" stroke-miterlimit="10"/><path fill="none" stroke="rgb(0,0,0)" paint-order="fill stroke markers" d=" M 613 614 L 486.92777898961305 638.1453956696253" stroke-opacity="0.6980392156862745" stroke-linecap="round" stroke-linejoin="round" stroke-miterlimit="10"/><path fill="none" stroke="rgb(0,0,0)" paint-order="fill stroke markers" d=" M 601 307 L 413.8514172382072 442.0755344110876" stroke-opacity="0.6980392156862745" stroke-linecap="round" stroke-linejoin="round" stroke-miterlimit="10"/><path fill="none" stroke="rgb(0,0,0)" paint-order="fill stroke markers" d=" M 617 466 L 419.5020863080542 463.4709273442456" stroke-opacity="0.6980392156862745" stroke-linecap="round" stroke-linejoin="round" stroke-miterlimit="10"/><path fill="rgb(255,215,0)" stroke="none" paint-order="stroke fill markers" d=" M 289.8421254181457 284.65867458794315 C 289.8421254181457 288.5246678367587 286.70811866696124 291.65867458794315 282.8421254181457 291.65867458794315 C 278.9761321693302 291.65867458794315 275.8421254181457 288.5246678367587 275.8421254181457 284.65867458794315 C 275.8421254181457 280.7926813391276 278.9761321693302 277.65867458794315 282.8421254181457 277.65867458794315 C 286.70811866696124 277.65867458794315 289.8421254181457 280.7926813391276 289.8421254181457 284.65867458794315 Z" fill-opacity="1"/><path fill="none" stroke="rgb(0,0,0)" paint-order="fill stroke markers" d=" M 289.8421254181457 284.65867458794315 C 289.8421254181457 288.5246678367587 286.70811866696124 291.65867458794315 282.8421254181457 291.65867458794315 C 278.9761321693302 291.65867458794315 275.8421254181457 288.5246678367587 275.8421254181457 284.65867458794315 C 275.8421254181457 280.7926813391276 278.9761321693302 277.65867458794315 282.8421254181457 277.65867458794315 C 286.70811866696124 277.65867458794315 289.8421254181457 280.7926813391276 289.8421254181457 284.65867458794315 Z" stroke-opacity="1" stroke-linecap="round" stroke-linejoin="round" stroke-miterlimit="10"/><path fill="rgb(255,215,0)" stroke="none" paint-order="stroke fill markers" d=" M 493.92777898961305 638.1453956696253 C 493.92777898961305 642.0113889184408 490.7937722384286 645.1453956696253 486.92777898961305 645.1453956696253 C 483.0617857407975 645.1453956696253 479.92777898961305 642.0113889184408 479.92777898961305 638.1453956696253 C 479.92777898961305 634.2794024208097 483.0617857407975 631.1453956696253 486.92777898961305 631.1453956696253 C 490.7937722384286 631.1453956696253 493.92777898961305 634.2794024208097 493.92777898961305 638.1453956696253 Z" fill-opacity="1"/><path fill="none" stroke="rgb(0,0,0)" paint-order="fill stroke markers" d=" M 493.92777898961305 638.1453956696253 C 493.92777898961305 642.0113889184408 490.7937722384286 645.1453956696253 486.92777898961305 645.1453956696253 C 483.0617857407975 645.1453956696253 479.92777898961305 642.0113889184408 479.92777898961305 638.1453956696253 C 479.92777898961305 634.2794024208097 483.0617857407975 631.1453956696253 486.92777898961305 631.1453956696253 C 490.7937722384286 631.1453956696253 493.92777898961305 634.2794024208097 493.92777898961305 638.1453956696253 Z" stroke-opacity="1" stroke-linecap="round" stroke-linejoin="round" stroke-miterlimit="10"/><path fill="rgb(21,101,192)" stroke="none" paint-order="stroke fill markers" d=" M 161.99999999999997 306 C 161.99999999999997 306.5522847498308 161.55228474983076 307 160.99999999999997 307 C 160.44771525016918 307 159.99999999999997 306.5522847498308 159.99999999999997 306 C 159.99999999999997 305.4477152501692 160.44771525016918 305 160.99999999999997 305 C 161.55228474983076 305 161.99999999999997 305.4477152501692 161.99999999999997 306 Z" fill-opacity="1"/><path fill="none" stroke="rgb(0,0,0)" paint-order="fill stroke markers" d=" M 161.99999999999997 306 C 161.99999999999997 306.5522847498308 161.55228474983076 307 160.99999999999997 307 C 160.44771525016918 307 159.99999999999997 306.5522847498308 159.99999999999997 306 C 159.99999999999997 305.4477152501692 160.44771525016918 305 160.99999999999997 305 C 161.55228474983076 305 161.99999999999997 305.4477152501692 161.99999999999997 306 Z" stroke-opacity="1" stroke-linecap="round" stroke-linejoin="round" stroke-miterlimit="10"/><path fill="rgb(21,101,192)" stroke="none" paint-order="stroke fill markers" d=" M 217.40511551363898 346.2260887574915 C 217.40511551363898 346.77837350732227 216.95740026346976 347.2260887574915 216.40511551363898 347.2260887574915 C 215.85283076380819 347.2260887574915 215.40511551363898 346.77837350732227 215.40511551363898 346.2260887574915 C 215.40511551363898 345.6738040076607 215.85283076380819 345.2260887574915 216.40511551363898 345.2260887574915 C 216.95740026346976 345.2260887574915 217.40511551363898 345.6738040076607 217.40511551363898 346.2260887574915 Z" fill-opacity="1"/><path fill="none" stroke="rgb(0,0,0)" paint-order="fill stroke markers" d=" M 217.40511551363898 346.2260887574915 C 217.40511551363898 346.77837350732227 216.95740026346976 347.2260887574915 216.40511551363898 347.2260887574915 C 215.85283076380819 347.2260887574915 215.40511551363898 346.77837350732227 215.40511551363898 346.2260887574915 C 215.40511551363898 345.6738040076607 215.85283076380819 345.2260887574915 216.40511551363898 345.2260887574915 C 216.95740026346976 345.2260887574915 217.40511551363898 345.6738040076607 217.40511551363898 346.2260887574915 Z" stroke-opacity="1" stroke-linecap="round" stroke-linejoin="round" stroke-miterlimit="10"/><path fill="rgb(21,101,192)" stroke="none" paint-order="stroke fill markers" d=" M 173 534 C 173 534.5522847498308 172.5522847498308 535 172 535 C 171.4477152501692 535 171 534.5522847498308 171 534 C 171 533.4477152501692 171.4477152501692 533 172 533 C 172.5522847498308 533 173 533.4477152501692 173 534 Z" fill-opacity="1"/><path fill="none" stroke="rgb(0,0,0)" paint-order="fill stroke markers" d=" M 173 534 C 173 534.5522847498308 172.5522847498308 535 172 535 C 171.4477152501692 535 171 534.5522847498308 171 534 C 171 533.4477152501692 171.4477152501692 533 172 533 C 172.5522847498308 533 173 533.4477152501692 173 534 Z" stroke-opacity="1" stroke-linecap="round" stroke-linejoin="round" stroke-miterlimit="10"/><path fill="rgb(21,101,192)" stroke="none" paint-order="stroke fill markers" d=" M 350.16148306920104 481.64219228020494 C 350.16148306920104 482.1944770300357 349.71376781903183 482.64219228020494 349.16148306920104 482.64219228020494 C 348.60919831937025 482.64219228020494 348.16148306920104 482.1944770300357 348.16148306920104 481.64219228020494 C 348.16148306920104 481.08990753037415 348.60919831937025 480.64219228020494 349.16148306920104 480.64219228020494 C 349.71376781903183 480.64219228020494 350.16148306920104 481.08990753037415 350.16148306920104 481.64219228020494 Z" fill-opacity="1"/><path fill="none" stroke="rgb(0,0,0)" paint-order="fill stroke markers" d=" M 350.16148306920104 481.64219228020494 C 350.16148306920104 482.1944770300357 349.71376781903183 482.64219228020494 349.16148306920104 482.64219228020494 C 348.60919831937025 482.64219228020494 348.16148306920104 482.1944770300357 348.16148306920104 481.64219228020494 C 348.16148306920104 481.08990753037415 348.60919831937025 480.64219228020494 349.16148306920104 480.64219228020494 C 349.71376781903183 480.64219228020494 350.16148306920104 481.08990753037415 350.16148306920104 481.64219228020494 Z" stroke-opacity="1" stroke-linecap="round" stroke-linejoin="round" stroke-miterlimit="10"/><path fill="rgb(21,101,192)" stroke="none" paint-order="stroke fill markers" d=" M 614 614 C 614 614.5522847498308 613.5522847498308 615 613 615 C 612.4477152501692 615 612 614.5522847498308 612 614 C 612 613.4477152501692 612.4477152501692 613 613 613 C 613.5522847498308 613 614 613.4477152501692 614 614 Z" fill-opacity="1"/><path fill="none" stroke="rgb(0,0,0)" paint-order="fill stroke markers" d=" M 614 614 C 614 614.5522847498308 613.5522847498308 615 613 615 C 612.4477152501692 615 612 614.5522847498308 612 614 C 612 613.4477152501692 612.4477152501692 613 613 613 C 613.5522847498308 613 614 613.4477152501692 614 614 Z" stroke-opacity="1" stroke-linecap="round" stroke-linejoin="round" stroke-miterlimit="10"/><path fill="rgb(21,101,192)" stroke="none" paint-order="stroke fill markers" d=" M 602 307 C 602 307.5522847498308 601.5522847498308 308 601 308 C 600.4477152501692 308 600 307.5522847498308 600 307 C 600 306.4477152501692 600.4477152501692 306 601 306 C 601.5522847498308 306 602 306.4477152501692 602 307 Z" fill-opacity="1"/><path fill="none" stroke="rgb(0,0,0)" paint-order="fill stroke markers" d=" M 602 307 C 602 307.5522847498308 601.5522847498308 308 601 308 C 600.4477152501692 308 600 307.5522847498308 600 307 C 600 306.4477152501692 600.4477152501692 306 601 306 C 601.5522847498308 306 602 306.4477152501692 602 307 Z" stroke-opacity="1" stroke-linecap="round" stroke-linejoin="round" stroke-miterlimit="10"/><path fill="rgb(21,101,192)" stroke="none" paint-order="stroke fill markers" d=" M 414.8514172382072 442.0755344110876 C 414.8514172382072 442.62781916091836 414.403701988038 443.0755344110876 413.8514172382072 443.0755344110876 C 413.2991324883764 443.0755344110876 412.8514172382072 442.62781916091836 412.8514172382072 442.0755344110876 C 412.8514172382072 441.5232496612568 413.2991324883764 441.0755344110876 413.8514172382072 441.0755344110876 C 414.403701988038 441.0755344110876 414.8514172382072 441.5232496612568 414.8514172382072 442.0755344110876 Z" fill-opacity="1"/><path fill="none" stroke="rgb(0,0,0)" paint-order="fill stroke markers" d=" M 414.8514172382072 442.0755344110876 C 414.8514172382072 442.62781916091836 414.403701988038 443.0755344110876 413.8514172382072 443.0755344110876 C 413.2991324883764 443.0755344110876 412.8514172382072 442.62781916091836 412.8514172382072 442.0755344110876 C 412.8514172382072 441.5232496612568 413.2991324883764 441.0755344110876 413.8514172382072 441.0755344110876 C 414.403701988038 441.0755344110876 414.8514172382072 441.5232496612568 414.8514172382072 442.0755344110876 Z" stroke-opacity="1" stroke-linecap="round" stroke-linejoin="round" stroke-miterlimit="10"/><path fill="rgb(21,101,192)" stroke="none" paint-order="stroke fill markers" d=" M 618 466 C 618 466.5522847498308 617.5522847498308 467 617 467 C 616.4477152501692 467 616 466.5522847498308 616 466 C 616 465.4477152501692 616.4477152501692 465 617 465 C 617.5522847498308 465 618 465.4477152501692 618 466 Z" fill-opacity="1"/><path fill="none" stroke="rgb(0,0,0)" paint-order="fill stroke markers" d=" M 618 466 C 618 466.5522847498308 617.5522847498308 467 617 467 C 616.4477152501692 467 616 466.5522847498308 616 466 C 616 465.4477152501692 616.4477152501692 465 617 465 C 617.5522847498308 465 618 465.4477152501692 618 466 Z" stroke-opacity="1" stroke-linecap="round" stroke-linejoin="round" stroke-miterlimit="10"/><path fill="rgb(21,101,192)" stroke="none" paint-order="stroke fill markers" d=" M 420.5020863080542 463.4709273442456 C 420.5020863080542 464.02321209407637 420.05437105788496 464.4709273442456 419.5020863080542 464.4709273442456 C 418.9498015582234 464.4709273442456 418.5020863080542 464.02321209407637 418.5020863080542 463.4709273442456 C 418.5020863080542 462.9186425944148 418.9498015582234 462.4709273442456 419.5020863080542 462.4709273442456 C 420.05437105788496 462.4709273442456 420.5020863080542 462.9186425944148 420.5020863080542 463.4709273442456 Z" fill-opacity="1"/><path fill="none" stroke="rgb(0,0,0)" paint-order="fill stroke markers" d=" M 420.5020863080542 463.4709273442456 C 420.5020863080542 464.02321209407637 420.05437105788496 464.4709273442456 419.5020863080542 464.4709273442456 C 418.9498015582234 464.4709273442456 418.5020863080542 464.02321209407637 418.5020863080542 463.4709273442456 C 418.5020863080542 462.9186425944148 418.9498015582234 462.4709273442456 419.5020863080542 462.4709273442456 C 420.05437105788496 462.4709273442456 420.5020863080542 462.9186425944148 420.5020863080542 463.4709273442456 Z" stroke-opacity="1" stroke-linecap="round" stroke-linejoin="round" stroke-miterlimit="10"/><text fill="rgb(0,0,0)" stroke="none" font-family="geogebra-sans-serif, sans-serif" font-size="16px" font-style="normal" font-weight="normal" text-decoration="normal" x="110" y="308" text-anchor="start" dominant-baseline="alphabetic" fill-opacity="1">orbital</text><text fill="rgb(0,0,0)" stroke="none" font-family="geogebra-sans-serif, sans-serif" font-size="16px" font-style="normal" font-weight="normal" text-decoration="normal" x="117" y="539" text-anchor="start" dominant-baseline="alphabetic" fill-opacity="1">núcleo</text><text fill="rgb(0,0,0)" stroke="none" font-family="geogebra-sans-serif, sans-serif" font-size="16px" font-style="normal" font-weight="normal" text-decoration="normal" x="610" y="311" text-anchor="start" dominant-baseline="alphabetic" fill-opacity="1">protón</text><text fill="rgb(0,0,0)" stroke="none" font-family="geogebra-sans-serif, sans-serif" font-size="16px" font-style="normal" font-weight="normal" text-decoration="normal" x="619" y="617" text-anchor="start" dominant-baseline="alphabetic" fill-opacity="1">electrón</text><text fill="rgb(0,0,0)" stroke="none" font-family="geogebra-sans-serif, sans-serif" font-size="16px" font-style="normal" font-weight="normal" text-decoration="normal" x="623" y="470" text-anchor="start" dominant-baseline="alphabetic" fill-opacity="1">neutrón</text></g></g></svg>