<svg xmlns="http://www.w3.org/2000/svg" version="1.1" xmlns:xlink="http://www.w3.org/1999/xlink" xmlns:svgjs="http://svgjs.dev/svgjs" width="1500" height="1500" viewBox="0 0 1500 1500"><rect width="1500" height="1500" fill="#1d366f"></rect><g transform="matrix(0.6666666666666666,0,0,0.6666666666666666,249.39393939393943,616.3845009524676)"><svg viewBox="0 0 396 106" data-background-color="#1d366f" preserveAspectRatio="xMidYMid meet" height="401" width="1500" xmlns="http://www.w3.org/2000/svg" xmlns:xlink="http://www.w3.org/1999/xlink"><g id="tight-bounds" transform="matrix(1,0,0,1,0.2400000000000091,0.17289709572384027)"><svg viewBox="0 0 395.52 105.95948779804029" height="105.95948779804029" width="395.52"><g><svg viewBox="0 0 531.8866631112176 142.49200644688872" height="105.95948779804029" width="395.52"><g transform="matrix(1,0,0,1,136.36666311121752,19.693178893889836)"><svg viewBox="0 0 395.52 103.10564865910905" height="103.10564865910905" width="395.52"><g id="textblocktransform"><svg viewBox="0 0 395.52 103.10564865910905" height="103.10564865910905" width="395.52" id="textblock"><g><svg viewBox="0 0 395.52 71.85828917486752" height="71.85828917486752" width="395.52"><g transform="matrix(1,0,0,1,0,0)"><svg width="395.52" viewBox="2.25 -34.86 193.48 35.15" height="71.85828917486752" data-palette-color="#ffffff"><path d="M5.64-13.21L5.64 0 2.25 0 2.25-34.86 10.47-34.86Q14.89-34.86 16.92-33.45 18.95-32.03 19.17-28.76L19.17-28.76Q19.41-26.03 19.41-23.83 19.41-21.63 19.17-19.31L19.17-19.31Q18.95-16.06 16.91-14.64 14.87-13.21 10.38-13.21L10.38-13.21 5.64-13.21ZM10.47-31.74L5.64-31.74 5.64-16.33 10.38-16.33Q13.21-16.33 14.44-17.03 15.67-17.72 15.8-19.17L15.8-19.17Q16.16-24.02 15.8-28.93L15.8-28.93Q15.67-30.37 14.45-31.05 13.23-31.74 10.47-31.74L10.47-31.74ZM30 0.29L30 0.29Q26.02 0.29 24.39-1.07 22.75-2.44 22.63-5.62L22.63-5.62Q22.48-7.42 22.43-9.63 22.39-11.84 22.43-14.09 22.48-16.33 22.63-18.16L22.63-18.16Q22.75-21.34 24.4-22.71 26.05-24.07 30-24.07L30-24.07Q34.01-24.07 35.61-22.71 37.2-21.34 37.33-18.16L37.33-18.16Q37.47-16.36 37.52-14.15 37.57-11.94 37.52-9.7 37.47-7.47 37.33-5.62L37.33-5.62Q37.2-2.47 35.61-1.09 34.01 0.29 30 0.29ZM30-2.44L30-2.44Q32.25-2.44 33.2-2.99 34.15-3.54 34.23-4.81L34.23-4.81Q34.47-8.62 34.47-11.89 34.47-15.16 34.23-18.97L34.23-18.97Q34.15-20.26 33.23-20.8 32.3-21.34 30-21.34L30-21.34Q27.71-21.34 26.77-20.8 25.83-20.26 25.75-18.97L25.75-18.97Q25.53-15.16 25.52-11.88 25.51-8.59 25.75-4.81L25.75-4.81Q25.8-3.54 26.79-2.99 27.78-2.44 30-2.44ZM56.2-15.41L56.2-15.41 53.12-15.41Q53.22-16.26 53.21-17.36 53.19-18.46 53.19-19.07L53.19-19.07Q53.17-20.36 52.18-20.85 51.19-21.34 48.95-21.34L48.95-21.34Q46.65-21.34 45.67-20.85 44.7-20.36 44.67-19.07L44.67-19.07Q44.5-15.23 44.5-11.93 44.5-8.62 44.67-4.81L44.67-4.81Q44.7-3.47 45.67-2.95 46.65-2.44 48.92-2.44L48.92-2.44Q51.17-2.44 52.17-2.95 53.17-3.47 53.19-4.81L53.19-4.81Q53.19-5.47 53.21-6.41 53.22-7.35 53.12-8.47L53.12-8.47 56.2-8.47Q56.32-7.76 56.31-6.82 56.29-5.88 56.25-5.13L56.25-5.13Q56.1-2.25 54.45-0.98 52.8 0.29 48.92 0.29L48.92 0.29Q45.01 0.29 43.32-0.98 41.62-2.25 41.5-5.13L41.5-5.13Q41.4-6.93 41.36-9.38 41.33-11.82 41.36-14.28 41.4-16.75 41.5-18.58L41.5-18.58Q41.62-21.53 43.34-22.8 45.06-24.07 48.95-24.07L48.95-24.07Q52.8-24.07 54.5-22.83 56.2-21.58 56.25-18.73L56.25-18.73Q56.29-17.99 56.31-17.05 56.32-16.11 56.2-15.41ZM63.25-7.89L63.25 0 60.2 0 60.2-31.69 63.2-31.69 63.2-23.88 62.93-13.53 63.76-13.53 66.13-18.14 69.79-23.75 73.11-23.75 67.06-14.18 74.53 0 71.23 0 65.2-10.5 63.25-7.89ZM84.29 0.29L84.29 0.29Q80.26 0.29 78.54-0.98 76.82-2.25 76.7-5.13L76.7-5.13Q76.6-6.93 76.56-9.38 76.53-11.82 76.56-14.28 76.6-16.75 76.7-18.58L76.7-18.58Q76.82-21.53 78.59-22.8 80.36-24.07 84.29-24.07L84.29-24.07Q88-24.07 89.66-22.83 91.32-21.58 91.49-18.73L91.49-18.73Q91.54-17.87 91.59-15.75 91.64-13.62 91.45-11.23L91.45-11.23 79.75-11.23Q79.75-9.69 79.78-8.11 79.8-6.52 79.87-4.81L79.87-4.81Q79.9-3.47 80.9-2.95 81.9-2.44 84.19-2.44L84.19-2.44Q86.46-2.44 87.39-2.95 88.32-3.47 88.42-4.81L88.42-4.81Q88.49-6.15 88.42-8.47L88.42-8.47 91.45-8.47Q91.57-7.76 91.55-6.82 91.54-5.88 91.49-5.13L91.49-5.13Q91.32-2.25 89.75-0.98 88.17 0.29 84.29 0.29ZM79.75-13.82L79.75-13.82 88.47-13.82Q88.52-15.48 88.52-16.99 88.52-18.51 88.42-19.07L88.42-19.07Q88.32-20.29 87.37-20.81 86.42-21.34 84.29-21.34L84.29-21.34Q81.92-21.34 80.91-20.81 79.9-20.29 79.87-19.07L79.87-19.07Q79.8-17.65 79.76-16.36 79.73-15.06 79.75-13.82ZM103.09 0.29L103.09 0.29Q99.28 0.29 97.95-0.98 96.62-2.25 96.62-5.13L96.62-5.13 96.62-21.02 94.27-21.02 94.27-23.75 96.69-23.75 96.69-30.49 99.79-30.49 99.79-23.75 105.16-23.75 105.16-21.02 99.77-21.02 99.77-4.79Q99.77-3.44 100.33-2.93 100.89-2.42 103.16-2.42L103.16-2.42Q104.09-2.42 104.59-2.45 105.09-2.49 105.75-2.51L105.75-2.51 105.75 0.1Q105.16 0.2 104.48 0.24 103.8 0.29 103.09 0.29ZM116.24-31.74L116.24 0 112.85 0 112.85-31.74 106.19-31.74 106.19-34.86 122.93-34.86 122.93-31.74 116.24-31.74ZM132.77 0.29L132.77 0.29Q128.74 0.29 127.02-0.98 125.3-2.25 125.18-5.13L125.18-5.13Q125.08-6.93 125.04-9.38 125.01-11.82 125.04-14.28 125.08-16.75 125.18-18.58L125.18-18.58Q125.3-21.53 127.07-22.8 128.84-24.07 132.77-24.07L132.77-24.07Q136.48-24.07 138.14-22.83 139.8-21.58 139.97-18.73L139.97-18.73Q140.02-17.87 140.07-15.75 140.12-13.62 139.92-11.23L139.92-11.23 128.23-11.23Q128.23-9.69 128.25-8.11 128.28-6.52 128.35-4.81L128.35-4.81Q128.38-3.47 129.38-2.95 130.38-2.44 132.67-2.44L132.67-2.44Q134.94-2.44 135.87-2.95 136.8-3.47 136.9-4.81L136.9-4.81Q136.97-6.15 136.9-8.47L136.9-8.47 139.92-8.47Q140.05-7.76 140.03-6.82 140.02-5.88 139.97-5.13L139.97-5.13Q139.8-2.25 138.23-0.98 136.65 0.29 132.77 0.29ZM128.23-13.82L128.23-13.82 136.95-13.82Q136.99-15.48 136.99-16.99 136.99-18.51 136.9-19.07L136.9-19.07Q136.8-20.29 135.85-20.81 134.89-21.34 132.77-21.34L132.77-21.34Q130.4-21.34 129.39-20.81 128.38-20.29 128.35-19.07L128.35-19.07Q128.28-17.65 128.24-16.36 128.21-15.06 128.23-13.82ZM149.59 0.27L149.59 0.27Q146.61 0.27 145.18-0.9 143.75-2.08 143.51-4.57L143.51-4.57Q143.49-5.05 143.45-5.54 143.41-6.03 143.46-6.49L143.46-6.49Q143.63-8.67 144.83-10.14 146.02-11.62 149.37-12.84L149.37-12.84Q150.74-13.33 152.25-13.72 153.76-14.11 155.25-14.48L155.25-14.48 155.25-18.99Q155.25-20.19 154.35-20.76 153.45-21.34 151.2-21.34L151.2-21.34Q149.25-21.34 148.23-20.85 147.22-20.36 147.12-19.07L147.12-19.07Q147.07-18.46 147.07-17.32 147.07-16.19 147.12-15.41L147.12-15.41 144.07-15.41Q144.02-16.02 143.97-16.99 143.93-17.97 144-18.73L144-18.73Q144.12-21.56 145.84-22.81 147.56-24.07 151.32-24.07L151.32-24.07Q155.25-24.07 156.78-22.71 158.31-21.34 158.33-18.21L158.33-18.21 158.33 0 155.25 0 155.25-2.25 154.57-2.25Q153.96-1.03 152.82-0.38 151.69 0.27 149.59 0.27ZM150.37-2.37L150.37-2.37Q153.89-2.37 155.23-4.47L155.23-4.47 155.23-11.87Q154.06-11.62 152.82-11.29 151.59-10.96 149.93-10.4L149.93-10.4Q147.95-9.67 147.29-8.72 146.64-7.76 146.54-6.49L146.54-6.49Q146.56-6.13 146.57-5.7 146.59-5.27 146.64-4.81L146.64-4.81Q146.81-3.64 147.81-3 148.81-2.37 150.37-2.37ZM177.27-15.41L177.27-15.41 174.2-15.41Q174.29-16.26 174.28-17.36 174.27-18.46 174.27-19.07L174.27-19.07Q174.25-20.36 173.26-20.85 172.27-21.34 170.02-21.34L170.02-21.34Q167.73-21.34 166.75-20.85 165.77-20.36 165.75-19.07L165.75-19.07Q165.58-15.23 165.58-11.93 165.58-8.62 165.75-4.81L165.75-4.81Q165.77-3.47 166.75-2.95 167.73-2.44 170-2.44L170-2.44Q172.24-2.44 173.24-2.95 174.25-3.47 174.27-4.81L174.27-4.81Q174.27-5.47 174.28-6.41 174.29-7.35 174.2-8.47L174.2-8.47 177.27-8.47Q177.39-7.76 177.38-6.82 177.37-5.88 177.32-5.13L177.32-5.13Q177.17-2.25 175.53-0.98 173.88 0.29 170 0.29L170 0.29Q166.09 0.29 164.39-0.98 162.7-2.25 162.58-5.13L162.58-5.13Q162.48-6.93 162.44-9.38 162.4-11.82 162.44-14.28 162.48-16.75 162.58-18.58L162.58-18.58Q162.7-21.53 164.42-22.8 166.14-24.07 170.02-24.07L170.02-24.07Q173.88-24.07 175.58-22.83 177.27-21.58 177.32-18.73L177.32-18.73Q177.37-17.99 177.38-17.05 177.39-16.11 177.27-15.41ZM184.42-19.19L184.42 0 181.27 0 181.27-31.69 184.42-31.69 184.42-21.53 185.18-21.53Q186.03-22.83 187.17-23.45 188.31-24.07 190.28-24.07L190.28-24.07Q193.04-24.07 194.38-22.86 195.73-21.66 195.73-18.82L195.73-18.82 195.73 0 192.6 0 192.6-19.09Q192.6-20.31 191.83-20.86 191.06-21.41 189.35-21.41L189.35-21.41Q185.69-21.41 184.42-19.19L184.42-19.19Z" opacity="1" transform="matrix(1,0,0,1,0,0)" fill="#ffffff" class="wordmark-text-0" data-fill-palette-color="primary" id="text-0"></path></svg></g></svg></g><g transform="matrix(1,0,0,1,0,88.82230665011355)"><svg viewBox="0 0 247.99104 14.283342008995502" height="14.283342008995502" width="247.99104"><g transform="matrix(1,0,0,1,0,0)"><svg width="247.99104" viewBox="4 -35.01 781.55 45.019999999999996" height="14.283342008995502" data-palette-color="#08c076"><path d="M23.71-22.05L23.71-22.05Q23.71-20.26 23.03-18.7 22.36-17.14 21.19-15.97 20.02-14.79 18.44-14.12 16.87-13.45 15.09-13.45L15.09-13.45 7.15-13.45 7.15 0 4 0 4-35.01 15.09-35.01Q16.87-35.01 18.44-34.34 20.02-33.67 21.19-32.5 22.36-31.32 23.03-29.75 23.71-28.17 23.71-26.39L23.71-26.39 23.71-22.05ZM20.56-22.05L20.56-26.39Q20.56-27.56 20.12-28.58 19.68-29.59 18.91-30.36 18.14-31.13 17.13-31.57 16.11-32.01 14.94-32.01L14.94-32.01 7.15-32.01 7.15-16.46 14.94-16.46Q16.11-16.46 17.13-16.89 18.14-17.33 18.91-18.09 19.68-18.85 20.12-19.86 20.56-20.87 20.56-22.05L20.56-22.05ZM45.41-6.86L45.41-6.86Q45.41-5.35 44.83-4 44.26-2.66 43.26-1.66 42.26-0.66 40.92-0.09 39.57 0.49 38.06 0.49L38.06 0.49 36.06 0.49Q34.54 0.49 33.2-0.09 31.86-0.66 30.86-1.66 29.86-2.66 29.28-4 28.71-5.35 28.71-6.86L28.71-6.86 28.71-18.14Q28.71-19.65 29.28-21 29.86-22.34 30.86-23.34 31.86-24.34 33.2-24.91 34.54-25.49 36.06-25.49L36.06-25.49 38.06-25.49Q39.57-25.49 40.92-24.91 42.26-24.34 43.26-23.34 44.26-22.34 44.83-21 45.41-19.65 45.41-18.14L45.41-18.14 45.41-12.26 31.71-12.26 31.71-6.69Q31.71-5.79 32.05-4.99 32.39-4.2 32.98-3.61 33.57-3.03 34.36-2.69 35.15-2.34 36.06-2.34L36.06-2.34 38.06-2.34Q38.96-2.34 39.76-2.69 40.55-3.03 41.14-3.61 41.72-4.2 42.06-4.99 42.4-5.79 42.4-6.69L42.4-6.69 42.4-8.35 45.41-7.86 45.41-6.86ZM42.4-14.6L42.4-18.31Q42.4-19.21 42.06-20.01 41.72-20.8 41.14-21.39 40.55-21.97 39.76-22.31 38.96-22.66 38.06-22.66L38.06-22.66 36.06-22.66Q35.15-22.66 34.36-22.31 33.57-21.97 32.98-21.39 32.39-20.8 32.05-20.01 31.71-19.21 31.71-18.31L31.71-18.31 31.71-14.6 42.4-14.6ZM61.76-22.14L58.76-22.14Q57.86-22.14 57.06-21.8 56.27-21.46 55.68-20.87 55.1-20.29 54.76-19.49 54.41-18.7 54.41-17.8L54.41-17.8 54.41 0 51.41 0 51.41-25 52.41-25 54.05-22.46Q55.07-23.85 56.62-24.67 58.17-25.49 60-25.49L60-25.49 61.76-25.49 61.76-22.14ZM82.95-6.35L82.95-6.35Q82.95-4.83 82.34-3.58 81.73-2.32 80.68-1.42 79.63-0.51 78.25-0.01 76.87 0.49 75.36 0.49L75.36 0.49 73.36 0.49Q71.84 0.49 70.46-0.09 69.08-0.66 68.05-1.66 67.01-2.66 66.39-4 65.76-5.35 65.76-6.86L65.76-6.86 65.76-7.86 68.77-8.35 68.77-6.69Q68.77-5.79 69.15-4.99 69.52-4.2 70.16-3.61 70.79-3.03 71.62-2.69 72.45-2.34 73.36-2.34L73.36-2.34 75.36-2.34Q76.26-2.34 77.09-2.61 77.92-2.88 78.57-3.38 79.22-3.88 79.59-4.59 79.97-5.3 79.97-6.2L79.97-6.2Q79.97-7.54 79.39-8.4 78.8-9.25 77.84-9.83 76.87-10.4 75.64-10.78 74.41-11.16 73.11-11.54 71.82-11.91 70.59-12.4 69.35-12.89 68.39-13.68 67.42-14.48 66.84-15.67 66.25-16.87 66.25-18.65L66.25-18.65Q66.25-20.17 66.84-21.42 67.42-22.68 68.43-23.58 69.43-24.49 70.76-24.99 72.09-25.49 73.6-25.49L73.6-25.49 75.36-25.49Q76.87-25.49 78.22-24.91 79.56-24.34 80.56-23.34 81.56-22.34 82.13-21 82.71-19.65 82.71-18.14L82.71-18.14 82.71-18.04 79.7-17.55 79.7-18.31Q79.7-19.21 79.36-20.01 79.02-20.8 78.43-21.39 77.85-21.97 77.06-22.31 76.26-22.66 75.36-22.66L75.36-22.66 73.6-22.66Q72.7-22.66 71.9-22.39 71.11-22.12 70.52-21.62 69.94-21.12 69.6-20.41 69.26-19.7 69.26-18.8L69.26-18.8Q69.26-17.5 69.84-16.69 70.43-15.87 71.39-15.31 72.36-14.75 73.59-14.37 74.82-13.99 76.1-13.59 77.39-13.18 78.62-12.67 79.85-12.16 80.82-11.35 81.78-10.55 82.37-9.34 82.95-8.13 82.95-6.35ZM92.96-31.01L89.47-31.01 89.47-35.01 92.96-35.01 92.96-31.01ZM92.71 0L89.71 0 89.71-25 92.71-25 92.71 0ZM116.66 3.15L116.66 3.15Q116.66 4.66 116.09 5.93 115.51 7.2 114.51 8.11 113.51 9.01 112.17 9.51 110.83 10.01 109.31 10.01L109.31 10.01 108.07 10.01Q106.55 10.01 105.21 9.51 103.87 9.01 102.87 8.11 101.87 7.2 101.29 5.93 100.72 4.66 100.72 3.15L100.72 3.15 100.72 3.05Q100.72 1.59 101.26 0.37 101.79-0.85 102.72-1.76L102.72-1.76Q101.55-2.47 100.85-3.67 100.16-4.88 100.16-6.35L100.16-6.35Q100.16-7.67 100.72-8.8 101.28-9.94 102.26-10.64L102.26-10.64Q101.09-11.67 100.4-13.11 99.72-14.55 99.72-16.26L99.72-16.26 99.72-18.14Q99.72-19.65 100.29-21 100.87-22.34 101.87-23.34 102.87-24.34 104.21-24.91 105.55-25.49 107.07-25.49L107.07-25.49 108.31-25.49Q110.14-25.49 111.69-24.67 113.24-23.85 114.27-22.46L114.27-22.46 115.91-25 116.91-25 116.91-16.26Q116.91-14.75 116.33-13.4 115.76-12.06 114.76-11.06 113.76-10.06 112.41-9.48 111.07-8.91 109.56-8.91L109.56-8.91 105.21-8.91Q104.7-8.91 104.24-8.7 103.77-8.5 103.42-8.15 103.06-7.81 102.87-7.34 102.67-6.86 102.67-6.35L102.67-6.35Q102.67-5.83 102.87-5.37 103.06-4.91 103.42-4.55 103.77-4.2 104.24-4 104.7-3.81 105.21-3.81L105.21-3.81 109.31-3.81Q110.83-3.81 112.17-3.31 113.51-2.81 114.51-1.9 115.51-1 116.09 0.27 116.66 1.54 116.66 3.05L116.66 3.05 116.66 3.15ZM113.93-16.09L113.93-18.31Q113.93-19.21 113.59-20.01 113.24-20.8 112.65-21.39 112.05-21.97 111.25-22.31 110.46-22.66 109.56-22.66L109.56-22.66 107.07-22.66Q106.16-22.66 105.37-22.31 104.58-21.97 103.99-21.39 103.41-20.8 103.06-20.01 102.72-19.21 102.72-18.31L102.72-18.31 102.72-16.09Q102.72-15.19 103.06-14.39 103.41-13.6 103.99-13.01 104.58-12.43 105.37-12.08 106.16-11.74 107.07-11.74L107.07-11.74 109.56-11.74Q110.46-11.74 111.25-12.08 112.05-12.43 112.65-13.01 113.24-13.6 113.59-14.39 113.93-15.19 113.93-16.09L113.93-16.09ZM113.81 3.3L113.81 2.91Q113.81 2 113.46 1.28 113.12 0.56 112.54 0.07 111.95-0.42 111.16-0.68 110.36-0.95 109.46-0.95L109.46-0.95 107.92-0.95Q107.02-0.95 106.23-0.68 105.43-0.42 104.85 0.07 104.26 0.56 103.92 1.28 103.58 2 103.58 2.91L103.58 2.91 103.58 3.3Q103.58 4.2 103.92 4.91 104.26 5.62 104.85 6.12 105.43 6.62 106.23 6.88 107.02 7.15 107.92 7.15L107.92 7.15 109.46 7.15Q110.36 7.15 111.16 6.88 111.95 6.62 112.54 6.12 113.12 5.62 113.46 4.91 113.81 4.2 113.81 3.3L113.81 3.3ZM139.12 0L138.12 0 136.46-2.54Q135.43-1.15 133.9-0.33 132.36 0.49 130.53 0.49L130.53 0.49 129.77 0.49Q128.26 0.49 126.91-0.09 125.57-0.66 124.57-1.66 123.57-2.66 123-4 122.42-5.35 122.42-6.86L122.42-6.86 122.42-25 125.42-25 125.42-6.69Q125.42-5.79 125.77-4.99 126.11-4.2 126.69-3.61 127.28-3.03 128.07-2.69 128.87-2.34 129.77-2.34L129.77-2.34 131.77-2.34Q132.68-2.34 133.47-2.69 134.26-3.03 134.85-3.61 135.43-4.2 135.78-4.99 136.12-5.79 136.12-6.69L136.12-6.69 136.12-25 139.12-25 139.12 0ZM161.82-6.86L161.82-6.86Q161.82-5.35 161.25-4 160.68-2.66 159.67-1.66 158.67-0.66 157.33-0.09 155.99 0.49 154.47 0.49L154.47 0.49 152.47 0.49Q150.96 0.49 149.62-0.09 148.27-0.66 147.27-1.66 146.27-2.66 145.7-4 145.12-5.35 145.12-6.86L145.12-6.86 145.12-18.14Q145.12-19.65 145.7-21 146.27-22.34 147.27-23.34 148.27-24.34 149.62-24.91 150.96-25.49 152.47-25.49L152.47-25.49 154.47-25.49Q155.99-25.49 157.33-24.91 158.67-24.34 159.67-23.34 160.68-22.34 161.25-21 161.82-19.65 161.82-18.14L161.82-18.14 161.82-12.26 148.13-12.26 148.13-6.69Q148.13-5.79 148.47-4.99 148.81-4.2 149.4-3.61 149.98-3.03 150.78-2.69 151.57-2.34 152.47-2.34L152.47-2.34 154.47-2.34Q155.38-2.34 156.17-2.69 156.96-3.03 157.55-3.61 158.14-4.2 158.48-4.99 158.82-5.79 158.82-6.69L158.82-6.69 158.82-8.35 161.82-7.86 161.82-6.86ZM158.82-14.6L158.82-18.31Q158.82-19.21 158.48-20.01 158.14-20.8 157.55-21.39 156.96-21.97 156.17-22.31 155.38-22.66 154.47-22.66L154.47-22.66 152.47-22.66Q151.57-22.66 150.78-22.31 149.98-21.97 149.4-21.39 148.81-20.8 148.47-20.01 148.13-19.21 148.13-18.31L148.13-18.31 148.13-14.6 158.82-14.6ZM191.16 0L188.43 0Q187.06 0 185.85-0.51 184.65-1.03 183.75-1.93 182.86-2.83 182.34-4.03 181.81-5.22 181.81-6.59L181.81-6.59 181.81-22.14 177.32-22.14 177.32-25 181.81-25 181.81-31.01 184.82-31.49 184.82-25 191.16-25 191.16-22.14 184.82-22.14 184.82-6.45Q184.82-5.69 185.1-5.04 185.38-4.39 185.87-3.91 186.35-3.42 187.01-3.14 187.67-2.86 188.43-2.86L188.43-2.86 191.16-2.86 191.16 0ZM213.38 0L212.38 0 210.72-2.54Q209.69-1.15 208.15-0.33 206.62 0.49 204.78 0.49L204.78 0.49 204.03 0.49Q202.51 0.49 201.17-0.09 199.83-0.66 198.83-1.66 197.83-2.66 197.25-4 196.68-5.35 196.68-6.86L196.68-6.86 196.68-25 199.68-25 199.68-6.69Q199.68-5.79 200.02-4.99 200.37-4.2 200.95-3.61 201.54-3.03 202.33-2.69 203.12-2.34 204.03-2.34L204.03-2.34 206.03-2.34Q206.93-2.34 207.73-2.69 208.52-3.03 209.11-3.61 209.69-4.2 210.03-4.99 210.38-5.79 210.38-6.69L210.38-6.69 210.38-25 213.38-25 213.38 0ZM236.57-6.35L236.57-6.35Q236.57-4.83 235.96-3.58 235.35-2.32 234.3-1.42 233.25-0.51 231.87-0.01 230.49 0.49 228.98 0.49L228.98 0.49 226.97 0.49Q225.46 0.49 224.08-0.09 222.7-0.66 221.66-1.66 220.63-2.66 220-4 219.38-5.35 219.38-6.86L219.38-6.86 219.38-7.86 222.38-8.35 222.38-6.69Q222.38-5.79 222.76-4.99 223.14-4.2 223.78-3.61 224.41-3.03 225.24-2.69 226.07-2.34 226.97-2.34L226.97-2.34 228.98-2.34Q229.88-2.34 230.71-2.61 231.54-2.88 232.19-3.38 232.83-3.88 233.21-4.59 233.59-5.3 233.59-6.2L233.59-6.2Q233.59-7.54 233-8.4 232.42-9.25 231.45-9.83 230.49-10.4 229.26-10.78 228.02-11.16 226.73-11.54 225.44-11.91 224.2-12.4 222.97-12.89 222.01-13.68 221.04-14.48 220.46-15.67 219.87-16.87 219.87-18.65L219.87-18.65Q219.87-20.17 220.46-21.42 221.04-22.68 222.04-23.58 223.04-24.49 224.37-24.99 225.7-25.49 227.22-25.49L227.22-25.49 228.98-25.49Q230.49-25.49 231.83-24.91 233.18-24.34 234.18-23.34 235.18-22.34 235.75-21 236.33-19.65 236.33-18.14L236.33-18.14 236.33-18.04 233.32-17.55 233.32-18.31Q233.32-19.21 232.98-20.01 232.64-20.8 232.05-21.39 231.47-21.97 230.67-22.31 229.88-22.66 228.98-22.66L228.98-22.66 227.22-22.66Q226.32-22.66 225.52-22.39 224.73-22.12 224.14-21.62 223.56-21.12 223.21-20.41 222.87-19.7 222.87-18.8L222.87-18.8Q222.87-17.5 223.46-16.69 224.04-15.87 225.01-15.31 225.97-14.75 227.21-14.37 228.44-13.99 229.72-13.59 231-13.18 232.24-12.67 233.47-12.16 234.43-11.35 235.4-10.55 235.98-9.34 236.57-8.13 236.57-6.35ZM271.01-6.35L271.01-6.35Q271.01-4.83 270.4-3.58 269.79-2.32 268.74-1.42 267.69-0.51 266.31-0.01 264.93 0.49 263.42 0.49L263.42 0.49 261.42 0.49Q259.9 0.49 258.52-0.09 257.15-0.66 256.11-1.66 255.07-2.66 254.45-4 253.82-5.35 253.82-6.86L253.82-6.86 253.82-7.86 256.83-8.35 256.83-6.69Q256.83-5.79 257.21-4.99 257.58-4.2 258.22-3.61 258.85-3.03 259.68-2.69 260.51-2.34 261.42-2.34L261.42-2.34 263.42-2.34Q264.32-2.34 265.15-2.61 265.98-2.88 266.63-3.38 267.28-3.88 267.66-4.59 268.03-5.3 268.03-6.2L268.03-6.2Q268.03-7.54 267.45-8.4 266.86-9.25 265.9-9.83 264.93-10.4 263.7-10.78 262.47-11.16 261.17-11.54 259.88-11.91 258.65-12.4 257.41-12.89 256.45-13.68 255.49-14.48 254.9-15.67 254.31-16.87 254.31-18.65L254.31-18.65Q254.31-20.17 254.9-21.42 255.49-22.68 256.49-23.58 257.49-24.49 258.82-24.99 260.15-25.49 261.66-25.49L261.66-25.49 263.42-25.49Q264.93-25.49 266.28-24.91 267.62-24.34 268.62-23.34 269.62-22.34 270.19-21 270.77-19.65 270.77-18.14L270.77-18.14 270.77-18.04 267.77-17.55 267.77-18.31Q267.77-19.21 267.42-20.01 267.08-20.8 266.5-21.39 265.91-21.97 265.12-22.31 264.32-22.66 263.42-22.66L263.42-22.66 261.66-22.66Q260.76-22.66 259.97-22.39 259.17-22.12 258.59-21.62 258-21.12 257.66-20.41 257.32-19.7 257.32-18.8L257.32-18.8Q257.32-17.5 257.9-16.69 258.49-15.87 259.45-15.31 260.42-14.75 261.65-14.37 262.88-13.99 264.16-13.59 265.45-13.18 266.68-12.67 267.91-12.16 268.88-11.35 269.84-10.55 270.43-9.34 271.01-8.13 271.01-6.35ZM293.47 0L292.47 0 290.81-2.54Q289.78-1.15 288.25-0.33 286.71 0.49 284.88 0.49L284.88 0.49 284.12 0.49Q282.61 0.49 281.26-0.09 279.92-0.66 278.92-1.66 277.92-2.66 277.35-4 276.77-5.35 276.77-6.86L276.77-6.86 276.77-25 279.77-25 279.77-6.69Q279.77-5.79 280.12-4.99 280.46-4.2 281.04-3.61 281.63-3.03 282.42-2.69 283.22-2.34 284.12-2.34L284.12-2.34 286.12-2.34Q287.03-2.34 287.82-2.69 288.61-3.03 289.2-3.61 289.78-4.2 290.13-4.99 290.47-5.79 290.47-6.69L290.47-6.69 290.47-25 293.47-25 293.47 0ZM316.17-6.86L316.17-6.86Q316.17-5.35 315.6-4 315.03-2.66 314.03-1.66 313.02-0.66 311.68-0.09 310.34 0.49 308.82 0.49L308.82 0.49 306.82 0.49Q305.31 0.49 303.97-0.09 302.62-0.66 301.62-1.66 300.62-2.66 300.05-4 299.47-5.35 299.47-6.86L299.47-6.86 299.47-18.14Q299.47-19.65 300.05-21 300.62-22.34 301.62-23.34 302.62-24.34 303.97-24.91 305.31-25.49 306.82-25.49L306.82-25.49 308.82-25.49Q310.34-25.49 311.68-24.91 313.02-24.34 314.03-23.34 315.03-22.34 315.6-21 316.17-19.65 316.17-18.14L316.17-18.14 316.17-12.26 302.48-12.26 302.48-6.69Q302.48-5.79 302.82-4.99 303.16-4.2 303.75-3.61 304.33-3.03 305.13-2.69 305.92-2.34 306.82-2.34L306.82-2.34 308.82-2.34Q309.73-2.34 310.52-2.69 311.32-3.03 311.9-3.61 312.49-4.2 312.83-4.99 313.17-5.79 313.17-6.69L313.17-6.69 313.17-8.35 316.17-7.86 316.17-6.86ZM313.17-14.6L313.17-18.31Q313.17-19.21 312.83-20.01 312.49-20.8 311.9-21.39 311.32-21.97 310.52-22.31 309.73-22.66 308.82-22.66L308.82-22.66 306.82-22.66Q305.92-22.66 305.13-22.31 304.33-21.97 303.75-21.39 303.16-20.8 302.82-20.01 302.48-19.21 302.48-18.31L302.48-18.31 302.48-14.6 313.17-14.6ZM338.88 0L335.87 0 335.87-18.31Q335.87-19.21 335.53-20.01 335.19-20.8 334.6-21.39 334.02-21.97 333.22-22.31 332.43-22.66 331.53-22.66L331.53-22.66 329.53-22.66Q328.62-22.66 327.83-22.31 327.04-21.97 326.45-21.39 325.86-20.8 325.52-20.01 325.18-19.21 325.18-18.31L325.18-18.31 325.18 0 322.18 0 322.18-25 323.18-25 324.81-22.46Q325.84-23.85 327.39-24.67 328.94-25.49 330.77-25.49L330.77-25.49 331.53-25.49Q333.04-25.49 334.38-24.91 335.73-24.34 336.73-23.34 337.73-22.34 338.3-21 338.88-19.65 338.88-18.14L338.88-18.14 338.88 0ZM333.87-32.2L333.87-32.2Q334.9-32.2 335.43-32.98 335.97-33.76 335.97-35.01L335.97-35.01 338.27-35.01Q338.27-33.91 337.98-32.96 337.7-32.01 337.15-31.3 336.61-30.59 335.76-30.18 334.92-29.76 333.82-29.76L333.82-29.76Q332.65-29.76 331.76-30.2 330.87-30.64 330.1-31.15 329.33-31.67 328.63-32.1 327.94-32.54 327.18-32.54L327.18-32.54Q326.16-32.54 325.64-31.77 325.13-31.01 325.13-29.81L325.13-29.81 322.84-29.81Q322.84-30.88 323.1-31.84 323.37-32.79 323.92-33.5 324.47-34.2 325.31-34.61 326.16-35.01 327.28-35.01L327.28-35.01Q328.38-35.01 329.22-34.57 330.06-34.13 330.81-33.61 331.55-33.08 332.28-32.64 333.02-32.2 333.87-32.2ZM361.58-6.86L361.58-6.86Q361.58-5.35 361-4 360.43-2.66 359.43-1.66 358.43-0.66 357.09-0.09 355.74 0.49 354.23 0.49L354.23 0.49 352.23 0.49Q350.71 0.49 349.37-0.09 348.03-0.66 347.03-1.66 346.03-2.66 345.45-4 344.88-5.35 344.88-6.86L344.88-6.86 344.88-18.14Q344.88-19.65 345.45-21 346.03-22.34 347.03-23.34 348.03-24.34 349.37-24.91 350.71-25.49 352.23-25.49L352.23-25.49 354.23-25.49Q355.74-25.49 357.09-24.91 358.43-24.34 359.43-23.34 360.43-22.34 361-21 361.58-19.65 361.58-18.14L361.58-18.14 361.58-6.86ZM358.58-6.69L358.58-18.31Q358.58-19.21 358.23-20.01 357.89-20.8 357.31-21.39 356.72-21.97 355.93-22.31 355.13-22.66 354.23-22.66L354.23-22.66 352.23-22.66Q351.32-22.66 350.53-22.31 349.74-21.97 349.15-21.39 348.57-20.8 348.22-20.01 347.88-19.21 347.88-18.31L347.88-18.31 347.88-6.69Q347.88-5.79 348.22-4.99 348.57-4.2 349.15-3.61 349.74-3.03 350.53-2.69 351.32-2.34 352.23-2.34L352.23-2.34 354.23-2.34Q355.13-2.34 355.93-2.69 356.72-3.03 357.31-3.61 357.89-4.2 358.23-4.99 358.58-5.79 358.58-6.69L358.58-6.69ZM384.77-6.35L384.77-6.35Q384.77-4.83 384.16-3.58 383.55-2.32 382.5-1.42 381.45-0.51 380.07-0.01 378.69 0.49 377.18 0.49L377.18 0.49 375.17 0.49Q373.66 0.49 372.28-0.09 370.9-0.66 369.86-1.66 368.83-2.66 368.2-4 367.58-5.35 367.58-6.86L367.58-6.86 367.58-7.86 370.58-8.35 370.58-6.69Q370.58-5.79 370.96-4.99 371.34-4.2 371.98-3.61 372.61-3.03 373.44-2.69 374.27-2.34 375.17-2.34L375.17-2.34 377.18-2.34Q378.08-2.34 378.91-2.61 379.74-2.88 380.39-3.38 381.03-3.88 381.41-4.59 381.79-5.3 381.79-6.2L381.79-6.2Q381.79-7.54 381.21-8.4 380.62-9.25 379.65-9.83 378.69-10.4 377.46-10.78 376.22-11.16 374.93-11.54 373.64-11.91 372.4-12.4 371.17-12.89 370.21-13.68 369.24-14.48 368.66-15.67 368.07-16.87 368.07-18.65L368.07-18.65Q368.07-20.17 368.66-21.42 369.24-22.68 370.24-23.58 371.24-24.49 372.57-24.99 373.91-25.49 375.42-25.49L375.42-25.49 377.18-25.49Q378.69-25.49 380.03-24.91 381.38-24.34 382.38-23.34 383.38-22.34 383.95-21 384.53-19.65 384.53-18.14L384.53-18.14 384.53-18.04 381.52-17.55 381.52-18.31Q381.52-19.21 381.18-20.01 380.84-20.8 380.25-21.39 379.67-21.97 378.87-22.31 378.08-22.66 377.18-22.66L377.18-22.66 375.42-22.66Q374.52-22.66 373.72-22.39 372.93-22.12 372.34-21.62 371.76-21.12 371.41-20.41 371.07-19.7 371.07-18.8L371.07-18.8Q371.07-17.5 371.66-16.69 372.25-15.87 373.21-15.31 374.17-14.75 375.41-14.37 376.64-13.99 377.92-13.59 379.2-13.18 380.44-12.67 381.67-12.16 382.63-11.35 383.6-10.55 384.18-9.34 384.77-8.13 384.77-6.35ZM394.78 0L391.02 0 391.02-3.76 394.78-3.76 394.78 0ZM433.47 0L413.77 0 413.77-35.01 433.47-35.01 433.47-32.01 416.92-32.01 416.92-18.99 430.32-18.99 430.32-15.99 416.92-15.99 416.92-3 433.47-3 433.47 0ZM467.86 0L464.86 0 464.86-18.31Q464.86-19.21 464.52-20.01 464.18-20.8 463.59-21.39 463.01-21.97 462.21-22.31 461.42-22.66 460.52-22.66L460.52-22.66 459.03-22.66Q458.12-22.66 457.33-22.31 456.54-21.97 455.94-21.39 455.34-20.8 455-20.01 454.66-19.21 454.66-18.31L454.66-18.31 454.66 0 451.68 0 451.68-18.31Q451.68-19.21 451.34-20.01 450.99-20.8 450.4-21.39 449.8-21.97 449.01-22.31 448.21-22.66 447.31-22.66L447.31-22.66 445.82-22.66Q444.92-22.66 444.12-22.31 443.33-21.97 442.74-21.39 442.16-20.8 441.82-20.01 441.47-19.21 441.47-18.31L441.47-18.31 441.47 0 438.47 0 438.47-25 439.47-25 441.11-22.46Q442.13-23.85 443.68-24.67 445.23-25.49 447.06-25.49L447.06-25.49 447.31-25.49Q449.43-25.49 451.14-24.44 452.85-23.39 453.78-21.66L453.78-21.66Q454.24-22.51 454.93-23.22 455.61-23.93 456.44-24.43 457.27-24.93 458.25-25.21 459.22-25.49 460.27-25.49L460.27-25.49 460.52-25.49Q462.03-25.49 463.37-24.91 464.72-24.34 465.72-23.34 466.72-22.34 467.29-21 467.86-19.65 467.86-18.14L467.86-18.14 467.86 0ZM490.57-6.86L490.57-6.86Q490.57-5.35 489.99-4 489.42-2.66 488.42-1.66 487.42-0.66 486.08-0.09 484.73 0.49 483.22 0.49L483.22 0.49 482.46 0.49Q480.78 0.49 479.34-0.2 477.9-0.88 476.87-2.1L476.87-2.1 476.87 10.01 473.87 10.01 473.87-25 474.87-25 476.51-22.46Q477.53-23.85 479.08-24.67 480.63-25.49 482.46-25.49L482.46-25.49 483.22-25.49Q484.73-25.49 486.08-24.91 487.42-24.34 488.42-23.34 489.42-22.34 489.99-21 490.57-19.65 490.57-18.14L490.57-18.14 490.57-6.86ZM487.56-6.69L487.56-18.31Q487.56-19.21 487.22-20.01 486.88-20.8 486.3-21.39 485.71-21.97 484.92-22.31 484.12-22.66 483.22-22.66L483.22-22.66 481.22-22.66Q480.31-22.66 479.52-22.31 478.73-21.97 478.14-21.39 477.55-20.8 477.21-20.01 476.87-19.21 476.87-18.31L476.87-18.31 476.87-6.69Q476.87-5.79 477.21-4.99 477.55-4.2 478.14-3.61 478.73-3.03 479.52-2.69 480.31-2.34 481.22-2.34L481.22-2.34 483.22-2.34Q484.12-2.34 484.92-2.69 485.71-3.03 486.3-3.61 486.88-4.2 487.22-4.99 487.56-5.79 487.56-6.69L487.56-6.69ZM500.82-31.01L497.33-31.01 497.33-35.01 500.82-35.01 500.82-31.01ZM500.57 0L497.57 0 497.57-25 500.57-25 500.57 0ZM524.28-6.86L524.28-6.86Q524.28-5.35 523.7-4 523.13-2.66 522.13-1.66 521.13-0.66 519.79-0.09 518.44 0.49 516.93 0.49L516.93 0.49 514.93 0.49Q513.41 0.49 512.07-0.09 510.73-0.66 509.73-1.66 508.73-2.66 508.15-4 507.58-5.35 507.58-6.86L507.58-6.86 507.58-18.14Q507.58-19.65 508.15-21 508.73-22.34 509.73-23.34 510.73-24.34 512.07-24.91 513.41-25.49 514.93-25.49L514.93-25.49 516.93-25.49Q518.44-25.49 519.79-24.91 521.13-24.34 522.13-23.34 523.13-22.34 523.7-21 524.28-19.65 524.28-18.14L524.28-18.14 524.28-12.26 510.58-12.26 510.58-6.69Q510.58-5.79 510.92-4.99 511.27-4.2 511.85-3.61 512.44-3.03 513.23-2.69 514.02-2.34 514.93-2.34L514.93-2.34 516.93-2.34Q517.83-2.34 518.63-2.69 519.42-3.03 520.01-3.61 520.59-4.2 520.93-4.99 521.28-5.79 521.28-6.69L521.28-6.69 521.28-8.35 524.28-7.86 524.28-6.86ZM521.28-14.6L521.28-18.31Q521.28-19.21 520.93-20.01 520.59-20.8 520.01-21.39 519.42-21.97 518.63-22.31 517.83-22.66 516.93-22.66L516.93-22.66 514.93-22.66Q514.02-22.66 513.23-22.31 512.44-21.97 511.85-21.39 511.27-20.8 510.92-20.01 510.58-19.21 510.58-18.31L510.58-18.31 510.58-14.6 521.28-14.6ZM545.98 0L529.28 0 529.28-1.34 541.88-22.14 529.77-22.14 529.77-25 545.98-25 545.98-23.66 533.38-2.86 545.98-2.86 545.98 0ZM567.68 0L566.68 0 565.02-2.49Q563.99-1.15 562.46-0.33 560.92 0.49 559.09 0.49L559.09 0.49 558.33 0.49Q556.82 0.49 555.47-0.09 554.13-0.66 553.13-1.66 552.13-2.66 551.56-4 550.98-5.35 550.98-6.86L550.98-6.86 550.98-7.1Q550.98-8.62 551.56-9.96 552.13-11.3 553.13-12.3 554.13-13.31 555.47-13.88 556.82-14.45 558.33-14.45L558.33-14.45 564.68-14.45 564.68-18.31Q564.68-19.21 564.34-20.01 563.99-20.8 563.41-21.39 562.82-21.97 562.03-22.31 561.24-22.66 560.33-22.66L560.33-22.66 558.58-22.66Q557.67-22.66 556.88-22.31 556.08-21.97 555.5-21.39 554.91-20.8 554.57-20.01 554.23-19.21 554.23-18.31L554.23-18.31 554.23-17.41 551.23-17.9 551.23-18.14Q551.23-19.65 551.8-21 552.37-22.34 553.37-23.34 554.38-24.34 555.72-24.91 557.06-25.49 558.58-25.49L558.58-25.49 560.33-25.49Q561.85-25.49 563.19-24.91 564.53-24.34 565.53-23.34 566.53-22.34 567.11-21 567.68-19.65 567.68-18.14L567.68-18.14 567.68 0ZM564.68-6.69L564.68-12.11 558.33-12.11Q557.43-12.11 556.63-11.77 555.84-11.43 555.25-10.83 554.67-10.23 554.33-9.44 553.99-8.64 553.99-7.74L553.99-7.74 553.99-6.69Q553.99-5.79 554.33-4.99 554.67-4.2 555.25-3.61 555.84-3.03 556.63-2.69 557.43-2.34 558.33-2.34L558.33-2.34 560.33-2.34Q561.24-2.34 562.03-2.69 562.82-3.03 563.41-3.61 563.99-4.2 564.34-4.99 564.68-5.79 564.68-6.69L564.68-6.69ZM601.88 0L600.88 0 599.22-2.49Q598.19-1.15 596.66-0.33 595.12 0.49 593.29 0.49L593.29 0.49 592.53 0.49Q591.02 0.49 589.67-0.09 588.33-0.66 587.33-1.66 586.33-2.66 585.76-4 585.18-5.35 585.18-6.86L585.18-6.86 585.18-7.1Q585.18-8.62 585.76-9.96 586.33-11.3 587.33-12.3 588.33-13.31 589.67-13.88 591.02-14.45 592.53-14.45L592.53-14.45 598.88-14.45 598.88-18.31Q598.88-19.21 598.54-20.01 598.19-20.8 597.61-21.39 597.02-21.97 596.23-22.31 595.44-22.66 594.53-22.66L594.53-22.66 592.77-22.66Q591.87-22.66 591.08-22.31 590.28-21.97 589.7-21.39 589.11-20.8 588.77-20.01 588.43-19.21 588.43-18.31L588.43-18.31 588.43-17.41 585.43-17.9 585.43-18.14Q585.43-19.65 586-21 586.57-22.34 587.57-23.34 588.57-24.34 589.92-24.91 591.26-25.49 592.77-25.49L592.77-25.49 594.53-25.49Q596.05-25.49 597.39-24.91 598.73-24.34 599.73-23.34 600.73-22.34 601.31-21 601.88-19.65 601.88-18.14L601.88-18.14 601.88 0ZM598.88-6.69L598.88-12.11 592.53-12.11Q591.63-12.11 590.83-11.77 590.04-11.43 589.45-10.83 588.87-10.23 588.53-9.44 588.18-8.64 588.18-7.74L588.18-7.74 588.18-6.69Q588.18-5.79 588.53-4.99 588.87-4.2 589.45-3.61 590.04-3.03 590.83-2.69 591.63-2.34 592.53-2.34L592.53-2.34 594.53-2.34Q595.44-2.34 596.23-2.69 597.02-3.03 597.61-3.61 598.19-4.2 598.54-4.99 598.88-5.79 598.88-6.69L598.88-6.69ZM636.08 0L635.08 0 633.42-2.49Q632.39-1.15 630.86-0.33 629.32 0.49 627.49 0.49L627.49 0.49 626.73 0.49Q625.22 0.49 623.87-0.09 622.53-0.66 621.53-1.66 620.53-2.66 619.95-4 619.38-5.35 619.38-6.86L619.38-6.86 619.38-7.1Q619.38-8.62 619.95-9.96 620.53-11.3 621.53-12.3 622.53-13.31 623.87-13.88 625.22-14.45 626.73-14.45L626.73-14.45 633.08-14.45 633.08-18.31Q633.08-19.21 632.73-20.01 632.39-20.8 631.81-21.39 631.22-21.97 630.43-22.31 629.63-22.66 628.73-22.66L628.73-22.66 626.97-22.66Q626.07-22.66 625.28-22.31 624.48-21.97 623.9-21.39 623.31-20.8 622.97-20.01 622.63-19.21 622.63-18.31L622.63-18.31 622.63-17.41 619.62-17.9 619.62-18.14Q619.62-19.65 620.2-21 620.77-22.34 621.77-23.34 622.77-24.34 624.12-24.91 625.46-25.49 626.97-25.49L626.97-25.49 628.73-25.49Q630.24-25.49 631.59-24.91 632.93-24.34 633.93-23.34 634.93-22.34 635.51-21 636.08-19.65 636.08-18.14L636.08-18.14 636.08 0ZM633.08-6.69L633.08-12.11 626.73-12.11Q625.83-12.11 625.03-11.77 624.24-11.43 623.65-10.83 623.07-10.23 622.73-9.44 622.38-8.64 622.38-7.74L622.38-7.74 622.38-6.69Q622.38-5.79 622.73-4.99 623.07-4.2 623.65-3.61 624.24-3.03 625.03-2.69 625.83-2.34 626.73-2.34L626.73-2.34 628.73-2.34Q629.63-2.34 630.43-2.69 631.22-3.03 631.81-3.61 632.39-4.2 632.73-4.99 633.08-5.79 633.08-6.69L633.08-6.69ZM658.78-6.86L658.78-6.86Q658.78-5.35 658.21-4 657.63-2.66 656.63-1.66 655.63-0.66 654.29-0.09 652.95 0.49 651.43 0.49L651.43 0.49 650.68 0.49Q648.99 0.49 647.55-0.2 646.11-0.88 645.09-2.1L645.09-2.1 645.09 10.01 642.08 10.01 642.08-25 643.08-25 644.72-22.46Q645.75-23.85 647.3-24.67 648.85-25.49 650.68-25.49L650.68-25.49 651.43-25.49Q652.95-25.49 654.29-24.91 655.63-24.34 656.63-23.34 657.63-22.34 658.21-21 658.78-19.65 658.78-18.14L658.78-18.14 658.78-6.86ZM655.78-6.69L655.78-18.31Q655.78-19.21 655.44-20.01 655.1-20.8 654.51-21.39 653.92-21.97 653.13-22.31 652.34-22.66 651.43-22.66L651.43-22.66 649.43-22.66Q648.53-22.66 647.73-22.31 646.94-21.97 646.36-21.39 645.77-20.8 645.43-20.01 645.09-19.21 645.09-18.31L645.09-18.31 645.09-6.69Q645.09-5.79 645.43-4.99 645.77-4.2 646.36-3.61 646.94-3.03 647.73-2.69 648.53-2.34 649.43-2.34L649.43-2.34 651.43-2.34Q652.34-2.34 653.13-2.69 653.92-3.03 654.51-3.61 655.1-4.2 655.44-4.99 655.78-5.79 655.78-6.69L655.78-6.69ZM675.14-22.14L672.13-22.14Q671.23-22.14 670.44-21.8 669.64-21.46 669.06-20.87 668.47-20.29 668.13-19.49 667.79-18.7 667.79-17.8L667.79-17.8 667.79 0 664.79 0 664.79-25 665.79-25 667.42-22.46Q668.45-23.85 670-24.67 671.55-25.49 673.38-25.49L673.38-25.49 675.14-25.49 675.14-22.14ZM695.84-6.86L695.84-6.86Q695.84-5.35 695.26-4 694.69-2.66 693.69-1.66 692.69-0.66 691.35-0.09 690 0.49 688.49 0.49L688.49 0.49 686.49 0.49Q684.97 0.49 683.63-0.09 682.29-0.66 681.29-1.66 680.29-2.66 679.71-4 679.14-5.35 679.14-6.86L679.14-6.86 679.14-18.14Q679.14-19.65 679.71-21 680.29-22.34 681.29-23.34 682.29-24.34 683.63-24.91 684.97-25.49 686.49-25.49L686.49-25.49 688.49-25.49Q690-25.49 691.35-24.91 692.69-24.34 693.69-23.34 694.69-22.34 695.26-21 695.84-19.65 695.84-18.14L695.84-18.14 695.84-12.26 682.14-12.26 682.14-6.69Q682.14-5.79 682.48-4.99 682.83-4.2 683.41-3.61 684-3.03 684.79-2.69 685.58-2.34 686.49-2.34L686.49-2.34 688.49-2.34Q689.39-2.34 690.19-2.69 690.98-3.03 691.57-3.61 692.15-4.2 692.49-4.99 692.83-5.79 692.83-6.69L692.83-6.69 692.83-8.35 695.84-7.86 695.84-6.86ZM692.83-14.6L692.83-18.31Q692.83-19.21 692.49-20.01 692.15-20.8 691.57-21.39 690.98-21.97 690.19-22.31 689.39-22.66 688.49-22.66L688.49-22.66 686.49-22.66Q685.58-22.66 684.79-22.31 684-21.97 683.41-21.39 682.83-20.8 682.48-20.01 682.14-19.21 682.14-18.31L682.14-18.31 682.14-14.6 692.83-14.6ZM718.54 0L715.54 0 715.54-18.31Q715.54-19.21 715.2-20.01 714.85-20.8 714.27-21.39 713.68-21.97 712.89-22.31 712.1-22.66 711.19-22.66L711.19-22.66 709.19-22.66Q708.29-22.66 707.49-22.31 706.7-21.97 706.11-21.39 705.53-20.8 705.19-20.01 704.84-19.21 704.84-18.31L704.84-18.31 704.84 0 701.84 0 701.84-25 702.84-25 704.48-22.46Q705.5-23.85 707.05-24.67 708.6-25.49 710.43-25.49L710.43-25.49 711.19-25.49Q712.71-25.49 714.05-24.91 715.39-24.34 716.39-23.34 717.39-22.34 717.97-21 718.54-19.65 718.54-18.14L718.54-18.14 718.54 0ZM741.24 0L740.24 0 738.58-2.54Q737.56-1.15 736.02-0.33 734.48 0.49 732.65 0.49L732.65 0.49 731.89 0.49Q730.38 0.49 729.04-0.09 727.69-0.66 726.69-1.66 725.69-2.66 725.12-4 724.54-5.35 724.54-6.86L724.54-6.86 724.54-18.14Q724.54-19.65 725.12-21 725.69-22.34 726.69-23.34 727.69-24.34 729.04-24.91 730.38-25.49 731.89-25.49L731.89-25.49 732.65-25.49Q734.33-25.49 735.77-24.8 737.21-24.12 738.24-22.9L738.24-22.9 738.24-35.01 741.24-35.01 741.24 0ZM738.24-6.69L738.24-18.31Q738.24-19.21 737.9-20.01 737.56-20.8 736.97-21.39 736.38-21.97 735.59-22.31 734.8-22.66 733.89-22.66L733.89-22.66 731.89-22.66Q730.99-22.66 730.2-22.31 729.4-21.97 728.82-21.39 728.23-20.8 727.89-20.01 727.55-19.21 727.55-18.31L727.55-18.31 727.55-6.69Q727.55-5.79 727.89-4.99 728.23-4.2 728.82-3.61 729.4-3.03 730.2-2.69 730.99-2.34 731.89-2.34L731.89-2.34 733.89-2.34Q734.8-2.34 735.59-2.69 736.38-3.03 736.97-3.61 737.56-4.2 737.9-4.99 738.24-5.79 738.24-6.69L738.24-6.69ZM763.95-6.86L763.95-6.86Q763.95-5.35 763.37-4 762.8-2.66 761.8-1.66 760.8-0.66 759.45-0.09 758.11 0.49 756.6 0.49L756.6 0.49 754.59 0.49Q753.08 0.49 751.74-0.09 750.4-0.66 749.39-1.66 748.39-2.66 747.82-4 747.25-5.35 747.25-6.86L747.25-6.86 747.25-18.14Q747.25-19.65 747.82-21 748.39-22.34 749.39-23.34 750.4-24.34 751.74-24.91 753.08-25.49 754.59-25.49L754.59-25.49 756.6-25.49Q758.11-25.49 759.45-24.91 760.8-24.34 761.8-23.34 762.8-22.34 763.37-21 763.95-19.65 763.95-18.14L763.95-18.14 763.95-12.26 750.25-12.26 750.25-6.69Q750.25-5.79 750.59-4.99 750.93-4.2 751.52-3.61 752.1-3.03 752.9-2.69 753.69-2.34 754.59-2.34L754.59-2.34 756.6-2.34Q757.5-2.34 758.29-2.69 759.09-3.03 759.67-3.61 760.26-4.2 760.6-4.99 760.94-5.79 760.94-6.69L760.94-6.69 760.94-8.35 763.95-7.86 763.95-6.86ZM760.94-14.6L760.94-18.31Q760.94-19.21 760.6-20.01 760.26-20.8 759.67-21.39 759.09-21.97 758.29-22.31 757.5-22.66 756.6-22.66L756.6-22.66 754.59-22.66Q753.69-22.66 752.9-22.31 752.1-21.97 751.52-21.39 750.93-20.8 750.59-20.01 750.25-19.21 750.25-18.31L750.25-18.31 750.25-14.6 760.94-14.6ZM780.3-22.14L777.3-22.14Q776.39-22.14 775.6-21.8 774.81-21.46 774.22-20.87 773.64-20.29 773.29-19.49 772.95-18.7 772.95-17.8L772.95-17.8 772.95 0 769.95 0 769.95-25 770.95-25 772.59-22.46Q773.61-23.85 775.16-24.67 776.71-25.49 778.54-25.49L778.54-25.49 780.3-25.49 780.3-22.14ZM785.55 0L781.79 0 781.79-3.76 785.55-3.76 785.55 0Z" opacity="1" transform="matrix(1,0,0,1,0,0)" fill="#08c076" class="slogan-text-1" data-fill-palette-color="secondary" id="text-1"></path></svg></g></svg></g></svg></g></svg></g><g><svg viewBox="0 0 119.40264563597148 142.49200644688872" height="142.49200644688872" width="119.40264563597148"><g><svg xmlns="http://www.w3.org/2000/svg" xmlns:xlink="http://www.w3.org/1999/xlink" version="1.1" x="0" y="0" viewBox="30.224 26.39805717128651 39.55503048024208 47.203942828713494" enable-background="new 0 0 100 100" xml:space="preserve" height="142.49200644688872" width="119.40264563597148" class="icon-icon-0" data-fill-palette-color="accent" id="icon-0"><path fill="#08c076" d="M49.394 49.609" data-fill-palette-color="accent"></path><path fill="#08c076" d="M57.601 45.593A4.22 4.22 0 0 1 53.39 41.382C53.39 39.07 55.281 37.191 57.601 37.191A4.2 4.2 0 0 1 61.796 41.382C61.796 43.703 59.913 45.593 57.601 45.593M57.601 38.792A2.6 2.6 0 0 0 54.992 41.382 2.613 2.613 0 0 0 57.601 43.991 2.606 2.606 0 0 0 60.195 41.382 2.596 2.596 0 0 0 57.601 38.792" data-fill-palette-color="accent"></path><path fill="#08c076" d="M49.956 53.93C49.726 53.93 49.163 53.836 48.858 53.02L47.475 49.258C47.182 48.469 47.381 47.399 47.936 46.766L48.694 45.899C49.342 45.165 50.569 45.161 51.217 45.903L51.975 46.762C52.53 47.399 52.729 48.469 52.436 49.258L51.053 53.016C50.749 53.836 50.187 53.93 49.956 53.93M50.015 46.96L49.14 47.82C48.972 48.008 48.886 48.465 48.976 48.703L49.956 51.364 50.936 48.703C51.026 48.465 50.94 48.008 50.772 47.82z" data-fill-palette-color="accent"></path><path fill="#08c076" d="M58.788 41.39C58.788 40.734 58.253 40.195 57.593 40.195A1.2 1.2 0 0 0 57.593 42.593 1.2 1.2 0 0 0 58.788 41.39" data-fill-palette-color="accent"></path><path fill="#08c076" d="M41.272 45.593A4.22 4.22 0 0 1 37.061 41.382C37.061 39.07 38.952 37.191 41.272 37.191A4.2 4.2 0 0 1 45.467 41.382C45.468 43.703 43.585 45.593 41.272 45.593M41.272 38.792A2.6 2.6 0 0 0 38.663 41.382 2.613 2.613 0 0 0 41.272 43.991 2.606 2.606 0 0 0 43.866 41.382 2.595 2.595 0 0 0 41.272 38.792" data-fill-palette-color="accent"></path><path fill="#08c076" d="M42.46 41.39C42.46 40.734 41.925 40.195 41.265 40.195A1.2 1.2 0 0 0 41.265 42.593 1.2 1.2 0 0 0 42.46 41.39" data-fill-palette-color="accent"></path><path fill="#08c076" d="M69.687 44.062C69.687 42.003 69.214 40.054 68.484 38.218 70.207 33.554 69.722 28.089 69.699 27.843A1.61 1.61 0 0 0 68.746 26.531 1.6 1.6 0 0 0 67.137 26.726C67.094 26.761 62.578 30.078 59.434 28.542L59.368 28.679C56.556 27.304 53.384 26.452 49.958 26.452 46.599 26.452 43.478 27.276 40.708 28.604L40.677 28.542C38.06 29.819 34.22 27.667 32.97 26.726A1.6 1.6 0 0 0 31.365 26.535C30.834 26.765 30.47 27.265 30.412 27.844 30.392 28.086 29.92 33.344 31.525 37.942 30.724 39.856 30.224 41.903 30.224 44.063 30.224 50.235 32.982 55.063 37.669 58.024 35.665 62.059 33.962 67.028 32.622 72.891L35.739 73.602C37.024 67.993 38.634 63.274 40.52 59.469 43.247 60.586 46.383 61.25 49.954 61.25 53.481 61.25 56.606 60.57 59.333 59.43 61.231 63.129 62.868 67.766 64.185 73.297L67.294 72.555C65.919 66.778 64.196 61.899 62.177 57.969 66.87 54.977 69.687 50.132 69.687 44.062M66.269 34.179A18.4 18.4 0 0 0 64.015 31.738 14.6 14.6 0 0 0 66.577 30.765 25 25 0 0 1 66.269 34.179M60.558 33.101C59.206 32.663 57.839 32.484 56.656 32.593 56.511 32.593 53.109 32.624 51.094 35.312L49.86 36.953 48.626 35.312C46.622 32.632 43.345 32.57 43.13 32.593 42.017 32.499 40.728 32.655 39.439 33.038 42.306 30.956 45.943 29.651 49.959 29.651 54.011 29.652 57.679 30.98 60.558 33.101M33.53 30.769C34.233 31.109 35.057 31.441 35.936 31.695A18 18 0 0 0 33.819 33.984 26 26 0 0 1 33.53 30.769M33.546 45.328C34.648 47.59 36.706 49.074 38.651 49.773 40.69 50.507 42.065 51.297 42.85 52.195A0.799 0.799 0 1 0 44.053 51.14C43.084 50.034 41.494 49.093 39.19 48.265 36.647 47.351 33.866 44.812 34.401 40.663 35.042 35.749 39.799 33.921 43.057 34.194 43.084 34.194 45.819 34.233 47.342 36.272L49.217 38.76C49.522 39.162 50.194 39.162 50.498 38.76L52.373 36.272C53.896 34.233 56.631 34.194 56.721 34.186 59.959 33.92 64.678 35.748 65.315 40.663 65.85 44.811 63.069 47.351 60.526 48.265 57.51 49.351 55.928 50.187 55.065 51.148A0.8 0.8 0 0 0 55.124 52.281 0.82 0.82 0 0 0 55.659 52.484C55.878 52.484 56.097 52.394 56.253 52.218 56.909 51.488 58.394 50.733 61.065 49.772 63.194 49.006 65.424 47.28 66.424 44.647 66.123 52.796 59.752 58.05 49.951 58.05 40.28 58.051 34.155 53.188 33.546 45.328" data-fill-palette-color="accent"></path></svg></g></svg></g></svg></g><defs></defs></svg><rect width="395.52" height="105.95948779804029" fill="none" stroke="none" visibility="hidden"></rect></g></svg></g></svg>